<svg xmlns="http://www.w3.org/2000/svg" width="512" height="512" viewBox="0 0 512 512"><title>favicon</title><g fill="none" fill-rule="evenodd"><rect width="512" height="512" fill="#FFF"/><path fill="#0A2C74" d="M70.3625422,396 L163.313265,396 C168.773034,396 171.703576,394.310109 174.634119,390.507855 L234.968892,307.839091 C236.224839,306.1492 237.480786,304.036836 237.480786,301.924473 C237.480786,298.968509 234.550243,297.278618 229.526456,297.278618 L194.818596,297.278618 C189.37616,297.278618 186.445617,294.724945 186.445617,291.345164 C186.445617,289.234145 187.701564,287.121782 188.957511,285.431891 L244.269831,210.495455 C245.525778,208.805564 246.781724,206.6932 246.781724,204.580836 C246.781724,201.201055 243.851182,198.666218 238.39008,198.666218 L197.257159,198.666218 C191.814723,198.666218 188.885514,196.553855 188.885514,193.156582 C188.885514,191.044218 190.141461,188.509382 191.396074,186.819491 L245.107129,114.804036 C248.036338,110.982945 252.222827,109.715527 255.990667,109.715527 C259.77584,109.715527 263.962329,110.982945 266.892871,114.804036 L320.602593,186.819491 C321.858539,188.509382 323.114486,191.044218 323.114486,193.156582 C323.114486,196.553855 320.183944,198.666218 314.724175,198.666218 L273.591254,198.666218 C268.148818,198.666218 265.218276,201.201055 265.218276,204.580836 C265.218276,206.6932 266.474222,208.805564 267.730169,210.495455 L323.041156,285.431891 C324.297103,287.121782 325.553049,289.234145 325.553049,291.345164 C325.553049,294.724945 322.622507,297.278618 317.181404,297.278618 L282.47221,297.278618 C277.431091,297.278618 274.500548,298.968509 274.500548,301.924473 C274.500548,304.036836 275.756495,306.1492 277.012442,307.839091 L337.365881,390.507855 C340.296424,394.310109 343.644282,396 348.668069,396 L441.637458,396 C448.334507,396 452.102347,393.465164 452.102347,389.240436 C452.102347,386.688109 450.8464,384.153273 449.590454,382.463382 L395.115431,307.839091 C393.860818,306.1492 392.604871,304.036836 392.604871,301.924473 C392.604871,298.968509 395.53408,297.278618 400.557867,297.278618 L465.935094,297.278618 C472.632143,297.278618 476,294.724945 476,290.500218 C476,287.966727 474.725387,285.431891 473.469441,283.742 L339.804445,105.069673 C337.292551,101.689891 334.780658,100 328.902241,100 L178.892605,100 C175.124764,100 170.939609,100.844945 167.9904,105.069673 L38.5118934,283.742 C36.8372978,286.276836 36,288.3892 36,290.500218 C36,294.724945 39.3491912,297.278618 46.0649063,297.278618 L111.423467,297.278618 C116.464586,297.278618 119.395129,298.968509 119.395129,301.924473 C119.395129,304.036836 118.139182,306.1492 116.883235,307.839091 L62.4095463,382.463382 C61.1535995,384.153273 59.878987,386.688109 59.878987,389.240436 C59.878987,393.465164 63.665493,396 70.3625422,396"/></g></svg>