<svg xmlns="http://www.w3.org/2000/svg" width="28" height="28" viewBox="0 0 28 28"><title>ic-ajuda</title><path fill="#586880" fill-rule="nonzero" d="M8.71872921,11.6718472 C8.17507893,11.6718472 7.73435656,12.1125695 7.73435656,12.6562198 C7.73435656,13.1998701 8.17507893,13.6405925 8.71872921,13.6405925 C9.2623795,13.6405925 9.70310187,13.1998701 9.70310187,12.6562198 C9.70310187,12.1125695 9.2623795,11.6718472 8.71872921,11.6718472 Z M8.98837426,10.8280992 C9.22135253,10.8280992 9.41024826,10.6392035 9.41024826,10.4062252 L9.41024826,10.3928356 C9.41024826,8.86144814 12.1327569,8.98679498 12.1327569,6.616775 C12.1327569,4.84279622 10.5465065,3.79686595 8.70712493,3.79686595 C7.13113992,3.79686595 6.24578131,4.41257951 5.49953675,5.36979539 C5.35135901,5.55985842 5.39478923,5.83588925 5.59254267,5.97366435 L6.05427634,6.295357 C6.23688927,6.42255778 6.48809793,6.38688663 6.62549537,6.21182677 C7.1509496,5.542349 7.68254928,5.20311259 8.70712493,5.20311259 C10.1020763,5.20311259 10.7265102,5.91310236 10.7265102,6.616775 C10.7265102,8.15623055 8.00400161,7.9198534 8.00400161,10.3928356 L8.00400161,10.4062252 C8.00400161,10.6392035 8.19289734,10.8280992 8.4258756,10.8280992 L8.98837426,10.8280992 Z M8.71872921,1.12499732 C12.8889921,1.12499732 16.3124611,4.50263285 16.3124611,8.71872921 C16.3124611,12.912544 12.9160115,16.3124611 8.71872921,16.3124611 C4.52656239,16.3124611 1.12499732,12.9177281 1.12499732,8.71872921 C1.12499732,4.52800434 4.5211379,1.12499732 8.71872921,1.12499732 Z M8.71872921,0 C3.90384506,0 0,3.90525268 0,8.71872921 C0,13.535021 3.90384506,17.4374584 8.71872921,17.4374584 C13.5336134,17.4374584 17.4374584,13.535021 17.4374584,8.71872921 C17.4374584,3.90525268 13.5336134,0 8.71872921,0 Z" transform="translate(5.2812, 5.5313)"/></svg>