<svg xmlns="http://www.w3.org/2000/svg" width="28" height="28" viewBox="0 0 28 28"><title>ic-controle</title><path fill="#586880" fill-rule="nonzero" d="M16.8749598,7.87498122 C18.7382366,7.87498122 20.2499517,6.36326608 20.2499517,4.49998927 C20.2499517,2.63671246 18.7382366,1.12499732 16.8749598,1.12499732 C15.011683,1.12499732 13.4999678,2.63671246 13.4999678,4.49998927 C13.4999678,6.36326608 15.011683,7.87498122 16.8749598,7.87498122 Z M16.8749598,2.24999464 C18.1159656,2.24999464 19.1249544,3.25898347 19.1249544,4.49998927 C19.1249544,5.74099507 18.1159656,6.74998391 16.8749598,6.74998391 C15.633954,6.74998391 14.6249651,5.74099507 14.6249651,4.49998927 C14.6249651,3.25898347 15.633954,2.24999464 16.8749598,2.24999464 Z M6.74998391,7.87498122 C8.92616433,7.87498122 10.6874745,6.11367103 10.6874745,3.93749061 C10.6874745,1.76131019 8.92616433,0 6.74998391,0 C4.57380349,0 2.81249329,1.76131019 2.81249329,3.93749061 C2.81249329,6.11367103 4.57380349,7.87498122 6.74998391,7.87498122 Z M6.74998391,1.12499732 C8.3003571,1.12499732 9.5624772,2.38711742 9.5624772,3.93749061 C9.5624772,5.48786381 8.3003571,6.74998391 6.74998391,6.74998391 C5.19961071,6.74998391 3.93749061,5.48786381 3.93749061,3.93749061 C3.93749061,2.38711742 5.19961071,1.12499732 6.74998391,1.12499732 Z M9.56597908,8.57810455 C8.39178373,8.57810455 8.09999442,8.99997854 6.74998391,8.99997854 C5.39997339,8.99997854 5.10818408,8.57810455 3.93398873,8.57810455 C2.65779243,8.57810455 1.41678663,9.14764131 0.689047124,10.2269425 C0.253131263,10.8737953 0,11.6507672 0,12.4874771 L0,14.0624665 C0,14.9941049 0.755857573,15.7499624 1.68749598,15.7499624 L11.8124718,15.7499624 C12.7441102,15.7499624 13.4999678,14.9941049 13.4999678,14.0624665 L13.4999678,12.4874771 C13.4999678,11.6507672 13.2468366,10.8737953 12.8109207,10.2269425 C12.0831812,9.14764131 10.8421754,8.57810455 9.56597908,8.57810455 Z M12.3749705,14.0624665 C12.3749705,14.3718339 12.1218392,14.6249651 11.8124718,14.6249651 L1.68749598,14.6249651 C1.37812858,14.6249651 1.12499732,14.3718339 1.12499732,14.0624665 L1.12499732,12.4874771 C1.12499732,11.9038641 1.29727626,11.3378636 1.62068553,10.8562173 C2.10586809,10.1355158 2.97069604,9.70310187 3.93045251,9.70310187 C4.8937452,9.70310187 5.23826876,10.1249759 6.74998391,10.1249759 C8.26169905,10.1249759 8.60622261,9.70310187 9.56597908,9.70310187 C10.5257699,9.70310187 11.3905978,10.1355158 11.8757461,10.8562173 C12.1991897,11.3378636 12.3714686,11.9038641 12.3714686,12.4874771 L12.3714686,14.0624665 L12.3749705,14.0624665 Z M21.9269077,10.0230092 C21.3187129,9.12302512 20.2851079,8.64841688 19.2233848,8.64841688 C18.2460502,8.64841688 17.9999571,8.99997854 16.8749598,8.99997854 C15.7499624,8.99997854 15.5038693,8.64841688 14.5265347,8.64841688 C14.0624665,8.64841688 13.6089382,8.75388538 13.1870642,8.93316809 C13.7214448,9.47458679 13.8374533,9.76287421 13.8972256,9.86834271 C14.0976226,9.81207225 14.3050578,9.77691608 14.5265347,9.77691608 C15.2929323,9.77691608 15.5812197,10.1284777 16.8749598,10.1284777 C18.1686998,10.1284777 18.4569872,9.77691608 19.2233848,9.77691608 C19.9616643,9.77691608 20.6225933,10.1038959 20.9952693,10.6558202 C21.2448644,11.02496 21.3784509,11.4609102 21.3784509,11.9109022 L21.3784509,13.2187185 C21.3784509,13.3734193 21.2519025,13.4999678 21.0972016,13.4999678 L14.6249651,13.4999678 C14.6249651,14.1222388 14.6355051,14.2909816 14.568729,14.6249651 L21.0936997,14.6249651 C21.8706372,14.6249651 22.4999464,13.995656 22.4999464,13.2187185 L22.4999464,11.9074004 C22.4999464,11.2077789 22.2890094,10.5609261 21.9269077,10.0230092 Z" transform="translate(2.75, 6.375)"/></svg>