<svg xmlns="http://www.w3.org/2000/svg" width="28" height="28" viewBox="0 0 28 28"><title>ic-manual</title><path fill="#586880" fill-rule="nonzero" d="M12.5155952,5.62498659 C12.7476121,5.62498659 12.9374692,5.43512956 12.9374692,5.20311259 L12.9374692,4.92186327 C12.9374692,4.6898463 12.7476121,4.49998927 12.5155952,4.49998927 L6.60935924,4.49998927 C6.37734228,4.49998927 6.18748525,4.6898463 6.18748525,4.92186327 L6.18748525,5.20311259 C6.18748525,5.43512956 6.37734228,5.62498659 6.60935924,5.62498659 L12.5155952,5.62498659 Z M12.9374692,7.45310723 L12.9374692,7.1718579 C12.9374692,6.93984094 12.7476121,6.74998391 12.5155952,6.74998391 L6.60935924,6.74998391 C6.37734228,6.74998391 6.18748525,6.93984094 6.18748525,7.1718579 L6.18748525,7.45310723 C6.18748525,7.68512419 6.37734228,7.87498122 6.60935924,7.87498122 L12.5155952,7.87498122 C12.7476121,7.87498122 12.9374692,7.68512419 12.9374692,7.45310723 Z M15.21208,16.8749598 C15.0714553,16.1647983 15.0995734,15.1276914 15.2261218,14.5616909 C15.5319874,14.4351081 15.7499624,14.1327788 15.7499624,13.7812171 L15.7499624,0.843747988 C15.7499624,0.376177845 15.3737846,0 14.9062145,0 L2.81249329,0 C1.25858388,0 0,1.25858388 0,2.81249329 L0,15.1874638 C0,16.7413732 1.25858388,17.9999571 2.81249329,17.9999571 L15.3280885,17.9999571 C15.5601054,17.9999571 15.7499624,17.8101001 15.7499624,17.5780831 L15.7499624,17.2968338 C15.7499624,17.0648168 15.5601054,16.8749598 15.3280885,16.8749598 L15.21208,16.8749598 Z M4.49998927,13.4999678 L4.49998927,1.12499732 L14.6249651,1.12499732 L14.6249651,13.4999678 L4.49998927,13.4999678 Z M1.12499732,14.0624665 L1.12499732,2.81249329 C1.12499732,1.88085489 1.88085489,1.12499732 2.81249329,1.12499732 L3.37499195,1.12499732 L3.37499195,13.4999678 L2.81249329,13.4999678 C2.1796823,13.4999678 1.59610368,13.7109048 1.12499732,14.0624665 Z M14.2136311,16.8749598 L2.81249329,16.8749598 C0.562498659,16.8749598 0.562498659,14.6249651 2.81249329,14.6249651 L14.2136311,14.6249651 C14.1116988,15.2858942 14.1046607,16.1577602 14.2136311,16.8749598 Z" transform="translate(6.125, 5.25)"/></svg>