<svg xmlns="http://www.w3.org/2000/svg" width="28" height="28" viewBox="0 0 28 28"><title>ic-ramos</title><path fill="#586880" fill-rule="nonzero" d="M17.3411144,1.97787767 L16.0224148,0.659178116 C15.5829627,0.219726039 15.0071089,0 14.4315983,0 C13.8557444,0 13.2798905,0.219726039 12.8407818,0.658834794 L10.4543853,3.04523123 L9.65914874,2.24999464 C9.21969666,1.81054256 8.50744097,1.81054256 8.06833222,2.24999464 L3.49380775,6.8245191 C3.38411639,6.93421046 3.38411639,7.11242887 3.49380775,7.22212023 L3.89140889,7.6197557 C4.00110024,7.72944706 4.17935299,7.72944706 4.28904435,7.6197557 L8.86319116,3.04557456 L9.65842776,3.84081116 L3.30326408,10.1963525 C1.50662606,11.9930248 0.302287041,14.3943215 0.00630920048,17.0549635 L0.00524490248,17.0630315 C-0.0506479086,17.5682298 0.347674201,17.9999571 0.842332445,17.9999571 C1.04375942,17.9999571 4.74676116,17.7542072 7.80431765,14.6970284 L17.3414577,5.15985403 C18.2200185,4.28094988 18.2200185,2.8564385 17.3411144,1.97787767 Z M7.00870339,13.9014485 C5.42667592,15.483476 3.35493403,16.5174243 1.16927792,16.8331088 C1.4902496,14.6309389 2.52279032,12.5679861 4.09918732,10.9915891 L10.4543853,4.63639108 L10.4547287,4.6367344 L10.455072,4.63639108 L13.3645881,7.54590715 L7.00870339,13.9014485 Z M16.5458778,4.36427411 L14.1594813,6.75067055 L11.2496219,3.84081116 L13.6360184,1.45441471 C14.0754705,1.01496264 14.7870052,1.01461932 15.2268349,1.45441471 L16.5455344,2.77311427 C16.9853298,3.21256635 16.9856732,3.92413539 16.5458778,4.36427411 Z" transform="translate(4.9997, 5.25)"/></svg>