<svg xmlns="http://www.w3.org/2000/svg" width="28" height="28" viewBox="0 0 28 28"><title>ic-saude</title><path fill="#586880" fill-rule="nonzero" d="M16.2531209,1.0792239 C14.3371099,-0.552035945 11.4718823,-0.281326599 9.69299407,1.55383214 L9.00041073,2.27099733 L8.30782739,1.55733403 C6.87346267,0.0737369463 3.98011706,-0.819209075 1.74770051,1.0792239 C-0.460099861,2.96358067 -0.576142675,6.34561073 1.39964073,8.38466836 L8.20235889,15.4088635 C8.42033398,15.6338767 8.70862141,15.7498852 8.99690884,15.7498852 C9.28516194,15.7498852 9.57344937,15.6373786 9.79142446,15.4088635 L16.5941426,8.38466836 C18.5769641,6.34561073 18.4609213,2.96358067 16.2531209,1.0792239 Z M15.7925889,7.60419461 L9.01448692,14.6283897 L2.20823255,7.60419461 C0.858256371,6.21202416 0.577007041,3.55773361 2.4789419,1.93701375 C4.40549294,0.291712043 6.66956377,1.48351981 7.49923556,2.34130967 L9.00041073,3.89171719 L10.5015859,2.34130967 C11.3172158,1.49756168 13.6023666,0.302252027 15.5218796,1.93701375 C17.4203125,3.5541974 17.1425651,6.20848794 15.7925889,7.60419461 Z" transform="translate(4.9996, 6.3751)"/></svg>