<svg xmlns="http://www.w3.org/2000/svg" width="28" height="28" viewBox="0 0 28 28"><title>ic-vida</title><path fill="#586880" fill-rule="nonzero" d="M16.8749598,7.87498122 C16.6453804,7.87498122 16.437602,8.01491925 16.3532478,8.22863715 L14.7494193,12.2382254 L11.7963014,0.426440176 C11.7323062,0.170871327 11.5203392,0.00597380168 11.236618,0 C10.9729467,0.00669477774 10.7500621,0.194423212 10.6983578,0.452120657 L7.81345793,14.8742169 L6.17097146,8.30107808 C6.10979149,8.0565642 5.88841751,7.87522155 5.62505525,7.87522155 L5.62498659,7.87498122 L0.281249329,7.87498122 C0.125861822,7.87498122 0,8.00084305 0,8.15623055 L0,8.71872921 C0,8.87411672 0.125861822,8.99997854 0.281249329,8.99997854 L5.18553451,8.99997854 L7.32899635,17.5738602 C7.39158394,17.8248629 7.61800476,17.9999571 7.87498122,17.9999571 L7.88833645,17.9999571 C8.15200769,17.9932623 8.37489229,17.8055339 8.42659658,17.5478364 L11.3114965,3.12574023 L14.0789803,14.1988683 C14.1384093,14.4354858 14.3437158,14.607387 14.5866504,14.6239008 C14.8545445,14.6337542 15.0570358,14.4976957 15.1470205,14.2713092 L17.2563904,8.99997854 L22.218697,8.99997854 C22.3740845,8.99997854 22.4999464,8.87411672 22.4999464,8.71872921 L22.4999464,8.15623055 C22.4999464,8.00084305 22.3740845,7.87498122 22.218697,7.87498122 L16.8749598,7.87498122 Z" transform="translate(2.75, 5.25)"/></svg>