<svg xmlns="http://www.w3.org/2000/svg" xmlns:xlink="http://www.w3.org/1999/xlink" width="128" height="48" viewBox="0 0 128 48"><title>menu-a</title><defs><path id="a" d="M24.9446545,31 C25.2424727,31 25.4023273,30.9086545 25.5621818,30.7031273 L28.8533091,26.2345455 C28.9218182,26.1432 28.9903273,26.0290182 28.9903273,25.9148364 C28.9903273,25.7550545 28.8304727,25.6637091 28.5564364,25.6637091 L26.6632,25.6637091 C26.3663273,25.6637091 26.2064727,25.5256727 26.2064727,25.3429818 C26.2064727,25.2288727 26.2749818,25.1146909 26.3434909,25.0233455 L29.3606545,20.9727273 C29.4291636,20.8813818 29.4976727,20.7672 29.4976727,20.6530182 C29.4976727,20.4703273 29.3378182,20.3333091 29.0399273,20.3333091 L26.7962182,20.3333091 C26.4993455,20.3333091 26.3395636,20.2191273 26.3395636,20.0354909 C26.3395636,19.9213091 26.4080727,19.7842909 26.4765091,19.6929455 L29.4063273,15.8002182 C29.5661091,15.5936727 29.7944727,15.5251636 30,15.5251636 C30.2064727,15.5251636 30.4348364,15.5936727 30.5946909,15.8002182 L33.5244364,19.6929455 C33.5929455,19.7842909 33.6614545,19.9213091 33.6614545,20.0354909 C33.6614545,20.2191273 33.5016,20.3333091 33.2037818,20.3333091 L30.9600727,20.3333091 C30.6632,20.3333091 30.5033455,20.4703273 30.5033455,20.6530182 C30.5033455,20.7672 30.5718545,20.8813818 30.6403636,20.9727273 L33.6574545,25.0233455 C33.7259636,25.1146909 33.7944727,25.2288727 33.7944727,25.3429818 C33.7944727,25.5256727 33.6346182,25.6637091 33.3378182,25.6637091 L31.4445091,25.6637091 C31.1695273,25.6637091 31.0096727,25.7550545 31.0096727,25.9148364 C31.0096727,26.0290182 31.0781818,26.1432 31.1466909,26.2345455 L34.4388364,30.7031273 C34.5986909,30.9086545 34.7813091,31 35.0553455,31 L40.1266182,31 C40.4919273,31 40.6974545,30.8629818 40.6974545,30.6346182 C40.6974545,30.4966545 40.6289455,30.3596364 40.5604364,30.2682909 L37.5889455,26.2345455 C37.5205091,26.1432 37.452,26.0290182 37.452,25.9148364 C37.452,25.7550545 37.6117818,25.6637091 37.8858182,25.6637091 L41.452,25.6637091 C41.8173091,25.6637091 42.0010182,25.5256727 42.0010182,25.2973091 C42.0010182,25.1603636 41.9314909,25.0233455 41.8629818,24.932 L34.5718545,15.2740364 C34.4348364,15.0913455 34.2978182,15 33.9771636,15 L25.7944727,15 C25.5889455,15 25.3606545,15.0456727 25.1997818,15.2740364 L18.1370182,24.932 C18.0456727,25.0690182 18,25.1832 18,25.2973091 C18,25.5256727 18.1826909,25.6637091 18.5490182,25.6637091 L22.1141818,25.6637091 C22.3891636,25.6637091 22.5490182,25.7550545 22.5490182,25.9148364 C22.5490182,26.0290182 22.4805091,26.1432 22.412,26.2345455 L19.4405818,30.2682909 C19.3720727,30.3596364 19.3025455,30.4966545 19.3025455,30.6346182 C19.3025455,30.8629818 19.5090909,31 19.8744,31 L24.9446545,31 Z"/></defs><g fill="none" fill-rule="evenodd"><path fill="#0A2C74" fill-rule="nonzero" d="M42,6 C46.418278,6 50,9.581722 50,14 L50,42 L18,42 C13.581722,42 10,38.418278 10,34 L10,14 C10,9.581722 13.581722,6 18,6 L42,6 Z"/><path fill="#FFF" d="M48.5,40.5 L18,40.5 C14.4101491,40.5 11.5,37.5898509 11.5,34 L11.5,14 C11.5,10.4101491 14.4101491,7.5 18,7.5 L42,7.5 C45.5898509,7.5 48.5,10.4101491 48.5,14 L48.5,40.5 Z"/><use xlink:href="#a" fill="#0A2C74"/></g></svg>