<svg xmlns="http://www.w3.org/2000/svg" width="28" height="28" viewBox="0 0 28 28"><title>ic-prev</title><path fill="#586880" fill-rule="nonzero" d="M12.9374692,1.12499732 L13.0780938,1.12499732 C13.3110721,1.12499732 13.4999678,0.936101589 13.4999678,0.703123324 L13.4999678,0.421873994 C13.4999678,0.188895729 13.3110721,0 13.0780938,0 L0.421873994,0 C0.188895729,0 0,0.188895729 0,0.421873994 L0,0.703123324 C0,0.936101589 0.188895729,1.12499732 0.421873994,1.12499732 L0.562498659,1.12499732 C0.562498659,4.35308182 2.11318084,7.93324296 5.12037201,8.99997854 C2.10346483,10.0701817 0.562498659,13.6573466 0.562498659,16.8749598 L0.421873994,16.8749598 C0.188895729,16.8749598 0,17.0638555 0,17.2968338 L0,17.5780831 C0,17.8110614 0.188895729,17.9999571 0.421873994,17.9999571 L13.0780938,17.9999571 C13.3110721,17.9999571 13.4999678,17.8110614 13.4999678,17.5780831 L13.4999678,17.2968338 C13.4999678,17.0638555 13.3110721,16.8749598 13.0780938,16.8749598 L12.9374692,16.8749598 C12.9374692,13.6468753 11.386787,10.0667141 8.37959581,8.99997854 C11.396503,7.92977541 12.9374692,4.3426105 12.9374692,1.12499732 Z M1.68749598,1.12499732 L11.8124718,1.12499732 C11.8124718,5.00824306 9.54592908,8.15623055 6.74998391,8.15623055 C3.95403873,8.15623055 1.68749598,5.00824306 1.68749598,1.12499732 Z M11.8124718,16.8749598 L1.68749598,16.8749598 C1.68749598,12.991714 3.95403873,9.84372653 6.74998391,9.84372653 C9.54592908,9.84372653 11.8124718,12.991714 11.8124718,16.8749598 Z M3.45862518,14.6249651 C3.26341232,14.6249651 3.09899545,14.7578651 3.05075872,14.9379717 C3.02432293,15.0368828 3.00015306,15.1357595 2.97835212,15.2343272 C2.91985006,15.4987881 3.11897679,15.7499624 3.38982346,15.7499624 L10.1101787,15.7499624 C10.3810254,15.7499624 10.5801521,15.4987881 10.52165,15.2343272 C10.4997804,15.1355192 10.4752672,15.0351662 10.4492434,14.9379717 C10.401041,14.7578651 10.2365898,14.6249651 10.041377,14.6249651 L3.45862518,14.6249651 Z M4.01978488,12.8350906 C3.82089848,13.113147 4.02287478,13.4999678 4.36475476,13.4999678 L9.13524738,13.4999678 C9.4771617,13.4999678 9.67913799,13.1131813 9.4802516,12.8350906 C9.40441178,12.7289697 9.32579106,12.6275868 9.24208917,12.5278518 C9.16120252,12.4316186 9.04268779,12.3750048 8.9169633,12.3750048 L4.58307318,12.3750048 C4.45731435,12.3750048 4.33883395,12.4316186 4.25794731,12.5278518 C4.17421109,12.6275524 4.0956247,12.7289697 4.01978488,12.8350906 Z" transform="translate(7.25, 5.25)"/></svg>