<svg xmlns="http://www.w3.org/2000/svg" width="112" height="48" viewBox="0 0 112 48"><title>img-seguros</title><g fill="none" fill-rule="evenodd"><path fill="#0A2C74" fill-rule="nonzero" d="M104,0 C108.418278,0 112,3.581722 112,8 L112,48 L8,48 C3.581722,48 0,44.418278 0,40 L0,8 C0,3.581722 3.581722,0 8,0 L104,0 Z"/><path fill="#FFF" d="M110.5,46.5 L8,46.5 C4.41014913,46.5 1.5,43.5898509 1.5,40 L1.5,8 C1.5,4.41014913 4.41014913,1.5 8,1.5 L104,1.5 C107.589851,1.5 110.5,4.41014913 110.5,8 L110.5,46.5 Z"/><path fill="#0A2C74" d="M70.5773,35 L77.5489,35 C77.9584,35 78.1782,34.8744 78.398,34.5918 L82.9233,28.4475 C83.0175,28.3219 83.1117,28.1649 83.1117,28.0079 C83.1117,27.7882 82.8919,27.6626 82.5151,27.6626 L79.9119,27.6626 C79.5037,27.6626 79.2839,27.4728 79.2839,27.2216 C79.2839,27.0647 79.3781,26.9077 79.4723,26.7821 L83.6209,21.2125 C83.7151,21.0869 83.8093,20.9299 83.8093,20.7729 C83.8093,20.5217 83.5895,20.3333 83.1799,20.3333 L80.0948,20.3333 C79.6866,20.3333 79.4669,20.1763 79.4669,19.9238 C79.4669,19.7668 79.5611,19.5784 79.6552,19.4528 L83.6837,14.1003 C83.9034,13.8163 84.2174,13.7221 84.5,13.7221 C84.7839,13.7221 85.0979,13.8163 85.3177,14.1003 L89.3461,19.4528 C89.4403,19.5784 89.5345,19.7668 89.5345,19.9238 C89.5345,20.1763 89.3147,20.3333 88.9052,20.3333 L85.8201,20.3333 C85.4119,20.3333 85.1921,20.5217 85.1921,20.7729 C85.1921,20.9299 85.2863,21.0869 85.3805,21.2125 L89.529,26.7821 C89.6232,26.9077 89.7174,27.0647 89.7174,27.2216 C89.7174,27.4728 89.4976,27.6626 89.0895,27.6626 L86.4862,27.6626 C86.1081,27.6626 85.8883,27.7882 85.8883,28.0079 C85.8883,28.1649 85.9825,28.3219 86.0767,28.4475 L90.6034,34.5918 C90.8232,34.8744 91.0743,35 91.4511,35 L98.4241,35 C98.9264,35 99.209,34.8116 99.209,34.4976 C99.209,34.3079 99.1148,34.1195 99.0206,33.9939 L94.9348,28.4475 C94.8407,28.3219 94.7465,28.1649 94.7465,28.0079 C94.7465,27.7882 94.9662,27.6626 95.343,27.6626 L100.2465,27.6626 C100.7488,27.6626 101.0014,27.4728 101.0014,27.1588 C101.0014,26.9705 100.9058,26.7821 100.8116,26.6565 L90.7863,13.3768 C90.5979,13.1256 90.4095,13 89.9686,13 L78.7174,13 C78.4348,13 78.1209,13.0628 77.8997,13.3768 L68.1884,26.6565 C68.0628,26.8449 68,27.0019 68,27.1588 C68,27.4728 68.2512,27.6626 68.7549,27.6626 L73.657,27.6626 C74.0351,27.6626 74.2549,27.7882 74.2549,28.0079 C74.2549,28.1649 74.1607,28.3219 74.0665,28.4475 L69.9808,33.9939 C69.8866,34.1195 69.791,34.3079 69.791,34.4976 C69.791,34.8116 70.075,35 70.5773,35"/><path fill="#00985C" d="M62.7195,28.7644 L62.7195,25.2782 C62.7195,25.1664 62.8167,25.0686 62.9279,25.0686 L65.291,25.0686 C65.4027,25.0686 65.5,25.1664 65.5,25.2782 L65.5,34.6507 C65.5,34.7625 65.4027,34.8603 65.291,34.8603 L62.9279,34.8603 C62.8167,34.8603 62.7195,34.7625 62.7195,34.6507 L62.7195,33.5457 C62.2743,34.4551 61.5095,35 60.3835,35 C58.465,35 57.7142,33.406 57.7142,31.1554 C57.7142,28.9041 58.465,27.3101 60.3835,27.3101 C61.5095,27.3101 62.2743,27.8556 62.7195,28.7644 Z M62.7195,32.3016 L62.7195,29.9246 C62.7195,29.5334 62.3576,29.3378 61.7874,29.3378 C60.9671,29.3378 60.6336,29.9107 60.6336,31.1554 C60.6336,32.3995 60.9671,32.9729 61.7874,32.9729 C62.441,32.9729 62.7195,32.6789 62.7195,32.3016 Z M56.7410627,30.9452 C56.7410627,31.4208 56.7549,31.8825 56.1985,31.8825 L51.9024,31.8825 C52.0413,32.7633 52.5421,33.0847 54.1967,33.0847 L56.3097,33.0847 C56.4486,33.0847 56.5598,33.2104 56.532,33.3501 L56.3097,34.483 C56.2958,34.5529 56.268,34.5948 56.2263,34.6088 C55.5588,34.8882 54.5718,35 53.418,35 C50.3868,35 49.0246,33.5318 49.0246,31.1274 C49.0246,28.7225 50.3451,27.3101 53.0423,27.3101 C55.6144,27.3101 56.7410627,28.7364 56.7410627,30.9452 Z M54.1828,30.5121 C54.1828,29.6452 53.9321,29.0997 53.084,29.0997 C52.3754,29.0997 51.9719,29.4356 51.8746,30.5121 L54.1828,30.5121 Z M35.6632,27.66 C35.6632,27.5482 35.7605,27.4498 35.8722,27.4498 L38.2353,27.4498 C38.3465,27.4498 38.4437,27.5482 38.4437,27.66 L38.4437,28.9321 C38.7778,27.9255 39.876,27.3101 40.9742,27.3101 C42.0452,27.3101 42.8099,27.7718 43.0878,28.8482 C43.4629,27.8836 44.5756,27.3101 45.6738,27.3101 C47.0499,27.3101 47.9536,28.0373 47.9536,29.8268 L47.9536,34.6507 C47.9536,34.7625 47.8563,34.8603 47.7452,34.8603 L45.3821,34.8603 C45.2703,34.8603 45.1731,34.7625 45.1731,34.6507 L45.1731,30.5121 C45.1731,29.8408 44.9508,29.4356 44.2138,29.4356 C43.4629,29.4356 43.199,29.5893 43.199,29.8408 L43.199,34.6507 C43.199,34.7625 43.1017,34.8603 42.9906,34.8603 L40.6268,34.8603 C40.5157,34.8603 40.4184,34.7625 40.4184,34.6507 L40.4184,30.5121 C40.4184,29.8408 40.1961,29.4356 39.4592,29.4356 C38.7083,29.4356 38.4437,29.5893 38.4437,29.8408 L38.4437,34.6507 C38.4437,34.7625 38.3465,34.8603 38.2353,34.8603 L35.8722,34.8603 C35.7605,34.8603 35.6632,34.7625 35.6632,34.6507 L35.6632,27.66 Z M31.4921,27.66 C31.4921,27.5482 31.59,27.4498 31.7011,27.4498 L34.0642,27.4498 C34.176,27.4498 34.2732,27.5482 34.2732,27.66 L34.2732,34.6507 C34.2732,34.7625 34.176,34.8603 34.0642,34.8603 L31.7011,34.8603 C31.59,34.8603 31.4921,34.7625 31.4921,34.6507 L31.4921,27.66 Z M34.4122,25.6044 C34.4122,26.6255 34.0781,26.7233 32.8688,26.7233 C31.6594,26.7233 31.3115,26.6255 31.3115,25.6044 C31.3115,24.6118 31.6594,24.5 32.8688,24.5 C34.0781,24.5 34.4122,24.6118 34.4122,25.6044 Z M22.4969,27.66 C22.4969,27.5482 22.5942,27.4498 22.7053,27.4498 L25.069,27.4498 C25.1802,27.4498 25.2774,27.5482 25.2774,27.66 L25.2774,28.9321 C25.6115,27.9255 26.7236,27.3101 27.9051,27.3101 C29.2957,27.3101 30.1716,28.0373 30.1716,29.9666 L30.1716,34.6507 C30.1716,34.7625 30.0744,34.8603 29.9632,34.8603 L27.5995,34.8603 C27.4883,34.8603 27.3911,34.7625 27.3911,34.6507 L27.3911,30.5121 C27.3911,29.8408 27.1688,29.4356 26.3624,29.4356 C25.542,29.4356 25.2774,29.5893 25.2774,29.8408 L25.2774,34.6507 C25.2774,34.7625 25.1802,34.8603 25.069,34.8603 L22.7053,34.8603 C22.5942,34.8603 22.4969,34.7625 22.4969,34.6507 L22.4969,27.66 Z M12,25.283 C12,25.1712 12.0973,25.0734 12.2084,25.0734 L14.7111,25.0734 C14.8222,25.0734 14.9195,25.1712 14.9195,25.283 L14.9195,30.9312 C14.9195,31.9803 15.4202,32.623 16.5601,32.623 C17.7006,32.623 18.1869,31.9803 18.1869,30.9312 L18.1869,25.283 C18.1869,25.1712 18.2841,25.0734 18.3953,25.0734 L20.8979,25.0734 C21.0091,25.0734 21.1069,25.1712 21.1069,25.283 L21.1069,30.7636 C21.1069,33.2244 19.8831,35 16.5601,35 C13.2232,35 12,33.2244 12,30.7636 L12,25.283 Z"/><path fill="#0A2C74" d="M59.681067,21.4436813 L60.0983807,20.0096154 C60.8932638,20.2651099 61.6801982,20.3928571 62.4591837,20.3928571 C62.8566253,20.3928571 63.1626553,20.3021978 63.3772737,20.1208791 C63.5918922,19.9395604 63.6992014,19.7005495 63.6992014,19.4038462 C63.6992014,19.206044 63.6236875,19.0412088 63.4726597,18.9093407 C63.3216319,18.7774725 63.0672693,18.657967 62.7095719,18.5508242 C62.2882838,18.4271978 61.936548,18.3076923 61.6543645,18.1923077 C61.3721809,18.0769231 61.0681381,17.9141484 60.742236,17.7039835 C60.4163339,17.4938187 60.1679329,17.2300824 59.9970331,16.9127747 C59.8261332,16.595467 59.7406832,16.2307692 59.7406832,15.8186813 C59.7406832,14.978022 60.03479,14.2980769 60.6230035,13.7788462 C61.2112171,13.2596154 61.994177,13 62.9718833,13 C63.8621525,13 64.7166519,13.1318681 65.5353815,13.3956044 L65.1538376,14.8914835 C64.335108,14.668956 63.6435596,14.5576923 63.0791925,14.5576923 C62.6499556,14.5576923 62.3121303,14.654533 62.0657165,14.8482143 C61.8193027,15.0418956 61.6960958,15.2994505 61.6960958,15.6208791 C61.6960958,15.8598901 61.7855202,16.0473901 61.9643689,16.1833791 C62.1134095,16.2967033 62.3355904,16.4057349 62.6309116,16.5104739 L62.8168811,16.5728022 C63.9217687,16.9354396 64.6868438,17.3166209 65.1121063,17.7163462 C65.5373688,18.1160714 65.75,18.6620879 65.75,19.3543956 C65.75,20.1620879 65.4558932,20.8049451 64.8676797,21.282967 C64.2794661,21.760989 63.4885574,22 62.4949534,22 C61.4854518,22 60.5474896,21.8145604 59.681067,21.4436813 Z M54.6136868,22 C53.3339249,22 52.3423081,21.6085165 51.6388365,20.8255495 C50.9353649,20.0425824 50.5836291,18.9464286 50.5836291,17.5370879 C50.5836291,16.1524725 50.9592114,15.0501374 51.710376,14.2300824 C52.4615406,13.4100275 53.469055,13 54.7329193,13 C56.0126812,13 57.0023107,13.3873626 57.7018079,14.1620879 C58.4013051,14.9368132 58.7510537,16.032967 58.7510537,17.4505495 C58.7510537,18.8351648 58.3754714,19.9395604 57.6243068,20.7637363 C56.8731422,21.5879121 55.8696022,22 54.6136868,22 Z M54.6494565,20.3928571 C55.3092096,20.3928571 55.8318452,20.1373626 56.2173636,19.6263736 C56.6028819,19.1153846 56.7956411,18.3983516 56.7956411,17.4752747 C56.7956411,16.5604396 56.6028819,15.8516484 56.2173636,15.3489011 C55.8318452,14.8461538 55.3092096,14.5947802 54.6494565,14.5947802 C54.0056012,14.5947802 53.4929015,14.8482143 53.1113576,15.3550824 C52.7298137,15.8619505 52.5390417,16.5769231 52.5390417,17.5 C52.5390417,18.4148352 52.7298137,19.1256868 53.1113576,19.6325549 C53.4929015,20.1394231 54.0056012,20.3928571 54.6494565,20.3928571 Z M49.7728483,21.6785714 L49.7728483,21.8269231 L47.6505102,21.8269231 L46.6012644,18.896978 L45.1704747,18.896978 L45.1704747,21.8269231 L43.2627551,21.8269231 L43.2627551,13.1730769 L46.6966504,13.1730769 C47.5869196,13.1730769 48.2963528,13.4244505 48.8249501,13.9271978 C49.3535474,14.4299451 49.6178461,15.1098901 49.6178461,15.967033 C49.6178461,17.1620879 49.1886091,18.0027473 48.3301353,18.489011 L49.7728483,21.6785714 Z M45.1704747,17.3887363 L46.386646,17.3887363 C46.7602411,17.3887363 47.0603094,17.2671703 47.2868512,17.0240385 C47.5133929,16.7809066 47.6266637,16.4450549 47.6266637,16.0164835 C47.6266637,15.5631868 47.5193545,15.2190934 47.304736,14.9842033 C47.0901176,14.7493132 46.7960108,14.6318681 46.4224157,14.6318681 L45.1704747,14.6318681 L45.1704747,17.3887363 Z M41.6173469,13.1730769 L41.6173469,18.7362637 C41.6173469,19.8406593 41.3331762,20.6607143 40.7648347,21.1964286 C40.1964933,21.7321429 39.324109,22 38.1476819,22 C35.8107254,22 34.6422471,20.9120879 34.6422471,18.7362637 L34.6422471,13.1730769 L36.5499667,13.1730769 L36.5499667,18.6497253 C36.5499667,19.2348901 36.6910585,19.6717033 36.973242,19.9601648 C37.2554255,20.2486264 37.6429311,20.3928571 38.1357587,20.3928571 C38.6683304,20.3928571 39.0637848,20.2506868 39.3221218,19.9663462 C39.5804588,19.6820055 39.7096273,19.2431319 39.7096273,18.6497253 L39.7096273,13.1730769 L41.6173469,13.1730769 Z M33.2353039,17.2651099 L33.2353039,21.3942308 C32.2099046,21.7980769 31.1368123,22 30.0160271,22 C28.696521,22 27.6671473,21.6291209 26.9279059,20.8873626 C26.1886646,20.1456044 25.8190439,19.0989011 25.8190439,17.7472527 C25.8190439,16.3131868 26.2264215,15.1634615 27.0411768,14.2980769 C27.855932,13.4326923 28.9389604,13 30.2902618,13 C31.1725821,13 32.1105442,13.1565934 33.1041482,13.4697802 L32.758374,14.9532967 C31.9475932,14.7225275 31.2242495,14.6071429 30.5883429,14.6071429 C29.737818,14.6071429 29.0562056,14.8894231 28.543506,15.4539835 C28.0308063,16.018544 27.7744565,16.7582418 27.7744565,17.6730769 C27.7744565,18.521978 27.9970238,19.1895604 28.4421584,19.6758242 C28.887293,20.1620879 29.499353,20.4052198 30.2783385,20.4052198 C30.6757801,20.4052198 31.0374519,20.3598901 31.363354,20.2692308 L31.363354,18.7733516 L30.0994898,18.7733516 L30.0994898,17.2651099 L33.2353039,17.2651099 Z M21.2882098,14.6318681 L21.2882098,16.7335165 L24.233252,16.7335165 L24.233252,18.2417582 L21.2882098,18.2417582 L21.2882098,20.3681319 L24.9248004,20.3681319 L24.9248004,21.8269231 L19.3804902,21.8269231 L19.3804902,13.1730769 L24.9248004,13.1730769 L24.9248004,14.6318681 L21.2882098,14.6318681 Z M12,21.4436813 L12.4173137,20.0096154 C13.2121968,20.2651099 13.9991312,20.3928571 14.7781167,20.3928571 C15.1755583,20.3928571 15.4815883,20.3021978 15.6962067,20.1208791 C15.9108252,19.9395604 16.0181344,19.7005495 16.0181344,19.4038462 C16.0181344,19.206044 15.9426205,19.0412088 15.7915927,18.9093407 C15.6405649,18.7774725 15.3862023,18.657967 15.0285049,18.5508242 C14.6072168,18.4271978 14.255481,18.3076923 13.9732975,18.1923077 C13.6911139,18.0769231 13.3870711,17.9141484 13.061169,17.7039835 C12.7352669,17.4938187 12.4868659,17.2300824 12.3159661,16.9127747 C12.1450662,16.595467 12.0596162,16.2307692 12.0596162,15.8186813 C12.0596162,14.978022 12.353723,14.2980769 12.9419366,13.7788462 C13.5301501,13.2596154 14.31311,13 15.2908163,13 C16.1810855,13 17.0355849,13.1318681 17.8543146,13.3956044 L17.4727706,14.8914835 C16.654041,14.668956 15.9624926,14.5576923 15.3981256,14.5576923 C14.9688886,14.5576923 14.6310633,14.654533 14.3846495,14.8482143 C14.1382357,15.0418956 14.0150288,15.2994505 14.0150288,15.6208791 C14.0150288,15.8598901 14.1044532,16.0473901 14.2833019,16.1833791 C14.4323425,16.2967033 14.6545234,16.4057349 14.9498446,16.5104739 L15.1358141,16.5728022 C16.2407017,16.9354396 17.0057768,17.3166209 17.4310393,17.7163462 C17.8563018,18.1160714 18.068933,18.6620879 18.068933,19.3543956 C18.068933,20.1620879 17.7748262,20.8049451 17.1866127,21.282967 C16.5983991,21.760989 15.8074904,22 14.8138864,22 C13.8043848,22 12.8664227,21.8145604 12,21.4436813 Z"/></g></svg>