<svg xmlns="http://www.w3.org/2000/svg" width="28" height="28" viewBox="0 0 28 28"><title>ic-acesso</title><path fill="#586880" fill-rule="nonzero" d="M17.8390335,4.02508683 C17.7567736,3.69213322 17.4994195,3.42811865 17.1689721,3.33566205 C16.8360185,3.2438921 16.4781397,3.33566205 16.2320465,3.58106857 L13.9866181,5.82649702 L12.4309577,5.56773528 L12.1715093,4.01241825 L14.4169378,1.7669898 C14.6609024,1.52371187 14.7551442,1.16617641 14.663031,0.833943773 C14.5709177,0.501024492 14.3047745,0.242262749 13.9686967,0.158938516 C12.1500517,-0.292083511 10.263944,0.229971824 8.93467013,1.55746042 C7.60436629,2.88882855 7.09916806,4.81012677 7.57693487,6.64456453 L0.780224847,13.4399013 C-0.260074949,14.4815744 -0.260074949,16.1761084 0.780224847,17.2174382 C1.2847021,17.7219154 1.95582782,18 2.66986878,18 C3.38387541,18 4.05393683,17.7219154 4.55810509,17.2174382 L11.3481547,10.4284186 C13.1773396,10.9111292 15.1028264,10.4031158 16.4419192,9.06364522 C17.7711931,7.73440568 18.2939694,5.85073555 17.8390335,4.02508683 Z M15.6466826,8.26844295 C14.5262858,9.38674549 12.8893955,9.7671462 11.3657328,9.26088367 L11.035972,9.15050567 L3.76286849,16.4222016 C3.17856889,17.0065012 2.16010437,17.0065012 1.57580477,16.4222016 C0.973927083,15.8196373 0.973927083,14.8380455 1.57580477,14.2351379 L8.85347449,6.95849811 L8.74484743,6.63014501 C8.24174347,5.10260272 8.61967225,3.46399579 9.73025005,2.35269702 C10.5286795,1.55395854 11.5819569,1.12504644 12.6759866,1.12504644 C12.9175136,1.12504644 13.1615125,1.14578309 13.4044471,1.188664 L10.967754,3.62676472 L11.4532798,6.54541316 L14.3733359,7.03128236 L16.8096514,4.59321597 C17.0459255,5.93793932 16.6219229,7.29285934 15.6466826,8.26844295 Z M2.81258771,14.6250143 C2.50181269,14.6250143 2.25008905,14.8767379 2.25008905,15.1875129 C2.25008905,15.4982879 2.50181269,15.7500116 2.81258771,15.7500116 C3.12336272,15.7500116 3.37508637,15.4982879 3.37508637,15.1875129 C3.37508637,14.8767379 3.12336272,14.6250143 2.81258771,14.6250143 Z" transform="translate(4.9999, 5.25)"/></svg>