<svg xmlns="http://www.w3.org/2000/svg" width="28" height="28" viewBox="0 0 28 28"><title>ic-odonto</title><path fill="#586880" fill-rule="nonzero" d="M15.6071175,3.38383387 C15.2193354,1.79195305 13.9505548,0.498213002 12.3720292,0.0886299331 C11.3901285,-0.165187974 10.3484554,0.128008959 9.2403152,0.944359857 C8.79804788,1.26917674 7.68640579,1.80496495 6.51255376,0.946454121 L6.49847756,0.936600781 C6.49638329,0.935193161 6.49391138,0.935193161 6.49181711,0.933785541 C5.39002836,0.126601339 4.35642334,-0.163780354 3.37661687,0.0893509091 C1.79915557,0.498556324 0.529310729,1.79233071 0.142249579,3.38417719 C-0.195579205,4.77215911 0.0730015448,6.15097434 0.898107152,7.26683929 C1.61915188,8.24170193 2.02523307,9.44089111 2.1739258,11.0404967 C2.30119524,12.4007039 2.49912033,14.1908531 2.90973337,15.9732432 L3.18432225,17.1675229 C3.29751549,17.657924 3.72574094,18.0003533 4.22671631,18.0003533 C4.7199326,18.0003533 5.14709376,17.6646188 5.26485318,17.186131 L6.47774091,12.3191306 C6.63807226,11.6747153 7.21251852,11.2243456 7.8748552,11.2243456 C8.53719187,11.2243456 9.11163814,11.6747153 9.27196948,12.3198172 L10.4848572,17.1857877 C10.5985311,17.6527398 11.0198215,17.9998383 11.5215865,17.9998383 C11.5221014,17.9998383 11.5224791,18.0003533 11.5229941,18.0003533 C12.0239695,18.0003533 12.4521949,17.6583016 12.5653881,17.1675229 L12.839977,15.9732432 C13.2509334,14.1901321 13.4485152,12.3999829 13.5757846,11.0404967 C13.7262626,9.43879685 14.1315885,8.23995098 14.8522899,7.26683929 C15.6774298,6.15028769 15.9456673,4.77143813 15.6071175,3.38383387 Z M13.9473963,6.59746451 C13.1004554,7.74213418 12.6258471,9.12026276 12.4556968,10.9353715 C12.3326502,12.2607658 12.1392913,14.0020604 11.7437844,15.7204896 L11.5208998,16.6904428 L10.3642482,12.0477346 C10.0788104,10.9002153 9.05468103,10.0993483 7.87519852,10.0993483 C6.69571601,10.0993483 5.67162101,10.9002153 5.38614882,12.0473569 L4.2812015,16.914735 L4.00661262,15.7204896 C3.61110575,14.002747 3.41774684,12.2614525 3.29470025,10.9360925 C3.1256142,9.12342132 2.65100596,7.7446061 1.80231413,6.59746451 C1.17935648,5.75478082 0.977929502,4.70782058 1.23562695,3.64997703 C1.52600864,2.45535403 2.47731939,1.48505757 3.65927382,1.17847108 C4.51356179,0.958058402 5.36609882,1.49947709 5.84317898,1.85138208 C5.8456509,1.85313302 5.84846614,1.85419732 5.8505604,1.85594826 C5.8516247,1.8566349 5.85196802,1.8576992 5.85303232,1.85842018 L8.6771299,3.83595453 C9.05327341,4.09715385 9.38550604,3.80536454 9.46038456,3.69742412 C9.63935828,3.4432629 9.5767707,3.0927312 9.32295279,2.91413513 L8.63071277,2.42970788 C9.08949387,2.3196732 9.52860263,2.12909519 9.90721806,1.8506611 C10.733388,1.24037203 11.444957,1.01079265 12.0900933,1.17778444 C13.2720133,1.48471425 14.2244227,2.4550107 14.5154911,3.64959938 C14.7721585,4.70782058 14.5714182,5.75478082 13.9473963,6.59746451 Z" transform="translate(6.1251, 5.25)"/></svg>